# xmcd
#
# Track frame offsets:
#	150
#	20082
#	42230
#	62092
#	95452
#
# Disc length: 4442 seconds
#
# Revision: 0
# Processed by: cddbd v1.5.1PL0 Copyright (c) Steve Scherf et al.
# Submitted via: dBpowerAMP V4.0
#
DISCID=3c115805
DTITLE=Ayumi Hamasaki - STEP You - Is This Love?
DYEAR=2005
DGENRE=Jpop
TTITLE0=STEP You -Original Mix-
TTITLE1=Is This Love? -Original Mix-
TTITLE2=STEP You -Instrumental-
TTITLE3=Is This Love? -Instrumental-
TTITLE4=DATA
EXTD=
EXTT0=
EXTT1=
EXTT2=
EXTT3=
EXTT4=
PLAYORDER=
